<svg width="1436" height="50" viewBox="0 0 1436 50" fill="none" xmlns="http://www.w3.org/2000/svg">
<path d="M0 27.0521C0 25.4234 1.32099 24.1016 2.9505 24.1016H1432.47C1434.1 24.1016 1435.42 25.4234 1435.42 27.0521V32.6462H0V27.0521Z" fill="#3D4143"/>
<path d="M0 32.6562H1435.42L1408.44 38.097C1370.03 45.8435 1330.96 49.7441 1291.78 49.7441H141.674C98.6189 49.7441 55.6932 45.0321 13.6633 35.6923L0 32.6562Z" fill="#2C2F31"/>
<path fill-rule="evenodd" clip-rule="evenodd" d="M612.383 24.1016C613.115 28.8725 609.561 32.6462 620.88 32.6462H815.972C827.29 32.6462 823.736 28.8725 824.469 24.1016H612.383Z" fill="#96A1A8"/>
<path d="M1274.62 0H157.859V25.0793H1274.62V0Z" fill="#1A202C"/>
<path d="M0 27.3099C0 25.6812 1.32099 24.3594 2.9505 24.3594H1432.47C1434.1 24.3594 1435.42 25.6812 1435.42 27.3099V32.904H0V27.3099Z" fill="url(#paint0_linear_436_135)"/>
<path d="M0 32.9141H1435.42L1408.44 38.3548C1370.03 46.1013 1330.96 50.0019 1291.78 50.0019H141.674C98.6189 50.0019 55.6932 45.2899 13.6633 35.9501L0 32.9141Z" fill="url(#paint1_linear_436_135)"/>
<path fill-rule="evenodd" clip-rule="evenodd" d="M612.383 24.3594C613.115 29.1303 609.561 32.904 620.88 32.904H815.972C827.29 32.904 823.736 29.1303 824.469 24.3594H612.383Z" fill="url(#paint2_linear_436_135)"/>
<path d="M671.195 5.90006H672.901L676.912 15.6972H677.051L681.06 5.90006H682.767V17.7021H681.429V8.73549H681.314L677.626 17.7021H676.335L672.647 8.73549H672.532V17.7021H671.195V5.90006ZM688.053 17.9101C687.491 17.9101 686.982 17.8039 686.525 17.5929C686.067 17.3775 685.704 17.0677 685.436 16.665C685.167 16.2578 685.033 15.7651 685.033 15.1897C685.033 14.6822 685.132 14.2706 685.333 13.9564C685.532 13.6378 685.799 13.3884 686.134 13.207C686.467 13.027 686.836 12.8928 687.24 12.8042C687.647 12.7113 688.056 12.639 688.468 12.5844C689.005 12.5151 689.441 12.4635 689.775 12.4295C690.114 12.3912 690.359 12.3277 690.512 12.2392C690.67 12.1507 690.75 11.9973 690.75 11.7775V11.7317C690.75 11.1638 690.593 10.7212 690.282 10.407C689.975 10.0913 689.508 9.9334 688.882 9.9334C688.233 9.9334 687.724 10.0765 687.355 10.3597C686.986 10.6445 686.727 10.9484 686.578 11.2715L685.287 10.8097C685.517 10.2727 685.824 9.85373 686.209 9.55426C686.597 9.25036 687.019 9.0394 687.476 8.9199C687.936 8.79746 688.391 8.73549 688.836 8.73549C689.12 8.73549 689.447 8.76942 689.816 8.83876C690.188 8.90367 690.548 9.04087 690.893 9.24888C691.243 9.45542 691.533 9.76817 691.763 10.1871C691.993 10.6061 692.11 11.1667 692.11 11.8704V17.7021H690.75V16.5027H690.68C690.587 16.6959 690.434 16.901 690.219 17.1193C690.003 17.3392 689.717 17.525 689.36 17.6785C689.003 17.8334 688.566 17.9101 688.053 17.9101ZM688.26 16.6871C688.798 16.6871 689.251 16.5824 689.62 16.3714C689.993 16.159 690.273 15.8875 690.461 15.5526C690.654 15.2177 690.75 14.8666 690.75 14.4978V13.2527C690.692 13.322 690.565 13.3855 690.369 13.443C690.177 13.4976 689.955 13.5448 689.701 13.5876C689.45 13.626 689.207 13.6599 688.969 13.6909C688.735 13.7174 688.544 13.741 688.398 13.7602C688.044 13.8059 687.714 13.8812 687.407 13.9844C687.103 14.0848 686.858 14.2367 686.669 14.4403C686.485 14.6394 686.393 14.9124 686.393 15.2591C686.393 15.7311 686.567 16.0881 686.917 16.3301C687.271 16.5691 687.718 16.6871 688.26 16.6871ZM698.188 17.8865C697.357 17.8865 696.643 17.6903 696.044 17.2993C695.444 16.9069 694.984 16.367 694.661 15.6795C694.338 14.992 694.177 14.2057 694.177 13.322C694.177 12.4236 694.342 11.6299 694.672 10.9425C695.006 10.2506 695.471 9.71063 696.067 9.32264C696.666 8.9317 697.365 8.73549 698.164 8.73549C698.787 8.73549 699.348 8.85056 699.848 9.0807C700.346 9.31084 700.756 9.63392 701.075 10.0485C701.394 10.4645 701.591 10.9484 701.668 11.5016H700.308C700.205 11.0974 699.975 10.7404 699.616 10.4291C699.263 10.1149 698.787 9.957 698.188 9.957C697.657 9.957 697.192 10.0957 696.792 10.3715C696.397 10.6445 696.087 11.031 695.864 11.5296C695.646 12.0253 695.537 12.608 695.537 13.2763C695.537 13.9608 695.645 14.5554 695.86 15.0628C696.078 15.5703 696.385 15.9642 696.782 16.2445C697.18 16.5248 697.65 16.665 698.188 16.665C698.541 16.665 698.862 16.603 699.15 16.4806C699.438 16.3581 699.682 16.1811 699.882 15.9495C700.081 15.7193 700.224 15.4435 700.308 15.1204H701.668C701.591 15.6426 701.401 16.1132 701.097 16.5322C700.798 16.9467 700.401 17.2772 699.905 17.5236C699.412 17.7655 698.84 17.8865 698.188 17.8865ZM703.841 17.7021V5.90006H707.967C708.789 5.90006 709.466 6.04169 710 6.32641C710.534 6.60671 710.933 6.98585 711.194 7.46235C711.455 7.93443 711.586 8.45815 711.586 9.03497C711.586 9.54246 711.495 9.96143 711.315 10.2919C711.138 10.6223 710.903 10.8835 710.613 11.0752C710.323 11.267 710.011 11.4087 709.673 11.5016V11.6167C710.034 11.6403 710.397 11.7671 710.762 11.9973C711.126 12.2274 711.431 12.5579 711.678 12.9886C711.924 13.4179 712.046 13.9446 712.046 14.5672C712.046 15.1587 711.912 15.6913 711.644 16.1634C711.374 16.6355 710.95 17.0102 710.369 17.2875C709.789 17.5634 709.034 17.7021 708.105 17.7021H703.841ZM705.269 16.4348H708.105C709.038 16.4348 709.701 16.2534 710.093 15.8919C710.489 15.5275 710.686 15.0864 710.686 14.5672C710.686 14.1674 710.585 13.7986 710.381 13.4607C710.177 13.1185 709.888 12.8455 709.511 12.642C709.134 12.4354 708.689 12.3307 708.174 12.3307H705.269V16.4348ZM705.269 11.087H707.92C708.351 11.087 708.739 11.0015 709.084 10.8333C709.434 10.6636 709.711 10.4261 709.915 10.1178C710.121 9.81095 710.226 9.44952 710.226 9.03497C710.226 8.51568 710.045 8.07606 709.685 7.71462C709.323 7.35023 708.751 7.1673 707.967 7.1673H705.269V11.087ZM717.806 17.8865C717.008 17.8865 716.307 17.6962 715.704 17.3156C715.103 16.9349 714.636 16.4038 714.298 15.7193C713.963 15.0363 713.796 14.2367 713.796 13.322C713.796 12.4 713.963 11.596 714.298 10.9085C714.636 10.2196 715.103 9.68556 715.704 9.30642C716.307 8.9258 717.008 8.73549 717.806 8.73549C718.605 8.73549 719.305 8.9258 719.904 9.30642C720.507 9.68556 720.976 10.2196 721.31 10.9085C721.649 11.596 721.817 12.4 721.817 13.322C721.817 14.2367 721.649 15.0363 721.31 15.7193C720.976 16.4038 720.507 16.9349 719.904 17.3156C719.305 17.6962 718.605 17.8865 717.806 17.8865ZM717.806 16.665C718.414 16.665 718.912 16.5086 719.305 16.1973C719.697 15.8875 719.986 15.4774 720.175 14.9699C720.364 14.4639 720.457 13.9136 720.457 13.322C720.457 12.7305 720.364 12.1802 720.175 11.6683C719.986 11.1579 719.697 10.7448 719.305 10.4291C718.912 10.1149 718.414 9.957 717.806 9.957C717.2 9.957 716.699 10.1149 716.309 10.4291C715.916 10.7448 715.627 11.1579 715.438 11.6683C715.249 12.1802 715.156 12.7305 715.156 13.322C715.156 13.9136 715.249 14.4639 715.438 14.9699C715.627 15.4774 715.916 15.8875 716.309 16.1973C716.699 16.5086 717.2 16.665 717.806 16.665ZM727.489 17.8865C726.69 17.8865 725.989 17.6962 725.386 17.3156C724.787 16.9349 724.318 16.4038 723.98 15.7193C723.645 15.0363 723.478 14.2367 723.478 13.322C723.478 12.4 723.645 11.596 723.98 10.9085C724.318 10.2196 724.787 9.68556 725.386 9.30642C725.989 8.9258 726.69 8.73549 727.489 8.73549C728.289 8.73549 728.988 8.9258 729.587 9.30642C730.191 9.68556 730.658 10.2196 730.993 10.9085C731.331 11.596 731.501 12.4 731.501 13.322C731.501 14.2367 731.331 15.0363 730.993 15.7193C730.658 16.4038 730.191 16.9349 729.587 17.3156C728.988 17.6962 728.289 17.8865 727.489 17.8865ZM727.489 16.665C728.096 16.665 728.596 16.5086 728.988 16.1973C729.379 15.8875 729.67 15.4774 729.857 14.9699C730.046 14.4639 730.14 13.9136 730.14 13.322C730.14 12.7305 730.046 12.1802 729.857 11.6683C729.67 11.1579 729.379 10.7448 728.988 10.4291C728.596 10.1149 728.096 9.957 727.489 9.957C726.882 9.957 726.383 10.1149 725.991 10.4291C725.6 10.7448 725.309 11.1579 725.12 11.6683C724.933 12.1802 724.838 12.7305 724.838 13.322C724.838 13.9136 724.933 14.4639 725.12 14.9699C725.309 15.4774 725.6 15.8875 725.991 16.1973C726.383 16.5086 726.882 16.665 727.489 16.665ZM734.844 14.4742L734.821 12.7924H735.097L738.97 8.85056H740.653L736.527 13.0226H736.412L734.844 14.4742ZM733.576 17.7021V5.90006H734.936V17.7021H733.576ZM739.2 17.7021L735.743 13.322L736.711 12.3779L740.929 17.7021H739.2ZM747.635 17.7021H746.138L750.471 5.90006H751.946L756.28 17.7021H754.782L751.254 7.76773H751.163L747.635 17.7021ZM748.189 13.0919H754.228V14.3591H748.189V13.0919ZM758.029 17.7021V8.85056H759.389V17.7021H758.029ZM758.72 7.37531C758.455 7.37531 758.226 7.28532 758.034 7.10387C757.846 6.92389 757.753 6.70702 757.753 6.45328C757.753 6.19954 757.846 5.98268 758.034 5.8027C758.226 5.62124 758.455 5.53125 758.72 5.53125C758.986 5.53125 759.212 5.62124 759.401 5.8027C759.592 5.98268 759.688 6.19954 759.688 6.45328C759.688 6.70702 759.592 6.92389 759.401 7.10387C759.212 7.28532 758.986 7.37531 758.72 7.37531ZM761.879 17.7021V8.85056H763.193V10.1871H763.286C763.447 9.74899 763.739 9.39346 764.161 9.12201C764.585 8.84909 765.061 8.71189 765.591 8.71189C765.691 8.71189 765.815 8.71484 765.965 8.71779C766.116 8.72222 766.228 8.72812 766.305 8.73549V10.1178C766.259 10.1075 766.154 10.0898 765.989 10.0662C765.827 10.0396 765.656 10.0263 765.476 10.0263C765.045 10.0263 764.661 10.1163 764.323 10.2963C763.989 10.4733 763.723 10.7197 763.528 11.0339C763.335 11.3452 763.239 11.7007 763.239 12.1005V17.7021H761.879Z" fill="white" fill-opacity="0.7"/>
<defs>
<linearGradient id="paint0_linear_436_135" x1="-2.76906e-10" y1="28.6317" x2="1435.42" y2="28.6317" gradientUnits="userSpaceOnUse">
<stop stop-color="#0D1012"/>
<stop offset="0.0295345" stop-color="#4D5154"/>
<stop offset="0.0625" stop-color="#242729"/>
<stop offset="0.133609" stop-color="#5B5E60"/>
<stop offset="0.865967" stop-color="#656B6F"/>
<stop offset="0.941937" stop-color="#242729"/>
<stop offset="0.971275" stop-color="#525659"/>
<stop offset="0.996436" stop-color="#0D1012"/>
</linearGradient>
<linearGradient id="paint1_linear_436_135" x1="717.71" y1="32.9141" x2="717.71" y2="50.0019" gradientUnits="userSpaceOnUse">
<stop stop-color="#54585A"/>
<stop offset="1" stop-color="#0B0B0E"/>
</linearGradient>
<linearGradient id="paint2_linear_436_135" x1="623.016" y1="29.5464" x2="818.108" y2="29.5464" gradientUnits="userSpaceOnUse">
<stop stop-color="#3C3C3C"/>
<stop offset="0.317518" stop-color="#3C3C3C" stop-opacity="0"/>
<stop offset="0.660584" stop-color="#3C3C3C" stop-opacity="0"/>
<stop offset="1" stop-color="#444444"/>
</linearGradient>
</defs>
</svg>
